<svg xmlns="http://www.w3.org/2000/svg" width="50.686" height="82.911" viewBox="0 0 50.686 82.911"><g transform="translate(0 0)"><g transform="translate(19.32 22.608)"><path d="M223.931,139.614a5.116,5.116,0,1,0,5.121,5.116A5.124,5.124,0,0,0,223.931,139.614Zm0,7.8a2.687,2.687,0,1,1,2.692-2.687A2.692,2.692,0,0,1,223.931,147.416Z" transform="translate(-218.81 -139.614)" fill="#fff"/></g><g transform="translate(0 0)"><path d="M347.152,188.509c0-.01,0,.009,0,0Z" transform="translate(-307.048 -157.98)" fill="#fff"/><path d="M362.161,159.783c0,.033,0-.033,0,0Z" transform="translate(-319.627 -133.901)" fill="#fff"/><path d="M143.455,40.241a6.719,6.719,0,0,0-1.421.153V25.883a1.215,1.215,0,1,0-2.429,0v4.646c-.061,6.586-6.559,12.184-14.846,12.766a1.215,1.215,0,0,0,.084,2.426c.029,0,.057,0,.086,0a20.513,20.513,0,0,0,12.06-4.8,15.948,15.948,0,0,0,2.615-2.91v3.45a6.72,6.72,0,0,0-2.874,5.507V61.028A16.367,16.367,0,0,1,134,64.088c-.032.025-.062.052-.091.08a16.247,16.247,0,0,1-10.589,3.908h-.024a16.306,16.306,0,0,1-16.287-16.288V38.014a16.2,16.2,0,0,0,3.152,3.354,20.222,20.222,0,0,0,9.441,4.107,1.215,1.215,0,1,0,.393-2.4,17.794,17.794,0,0,1-8.309-3.6,11.632,11.632,0,0,1-4.678-9.041V26.1a5.116,5.116,0,1,0,0-1.946V18.717a16.235,16.235,0,0,1,4.724-11.458l.054-.055.058-.057a16.26,16.26,0,0,1,11.465-4.718c.09,0,.18,0,.27,0l.14,0c.11,0,.22.007.329.012l.079,0c.1,0,.194.011.29.018l.122.008.233.02.183.016.166.018.252.029.092.012c.111.015.221.03.331.046h.008a16.313,16.313,0,0,1,13.8,16.1c0,.01,0,.019,0,.028v1.929a1.215,1.215,0,1,0,2.429,0V18.7A18.716,18.716,0,0,0,125.747.158l-.063-.008c-.11-.014-.221-.026-.332-.038L125.2.094l-.25-.022-.229-.02L124.54.041c-.1-.006-.194-.013-.292-.018l-.14-.005c-.11,0-.22-.009-.33-.012l-.215,0c-.082,0-.164,0-.247,0h-.024a18.656,18.656,0,0,0-13.161,5.422l-.066.065L110,5.552A18.629,18.629,0,0,0,104.576,18.7V29.993A6.759,6.759,0,0,0,99.5,36.509V50.832a6.734,6.734,0,0,0,5.971,6.681,18.686,18.686,0,0,0,2.989,5.678v2.171a1.214,1.214,0,0,0,2.368.378,18.71,18.71,0,0,0,7.084,3.977v1.732a3.512,3.512,0,0,1-7.023,0V70.6a1.215,1.215,0,1,0-2.429,0v.844a5.941,5.941,0,0,0,11.881,0V70.272a18.777,18.777,0,0,0,2.95.233h.024c.257,0,.512-.007.767-.017v6.487a5.941,5.941,0,0,0,11.881,0V65.589a18.711,18.711,0,0,0,1.406-1.44,6.732,6.732,0,0,0,6.083,3.863h.008a6.731,6.731,0,0,0,6.724-6.724V46.965A6.733,6.733,0,0,0,143.455,40.241Zm-31.423-17.8a2.687,2.687,0,1,1-2.692,2.687A2.692,2.692,0,0,1,112.032,22.437Zm-10.1,28.395V36.509a4.318,4.318,0,0,1,2.646-3.963V51.789a18.756,18.756,0,0,0,.259,3.107A4.3,4.3,0,0,1,101.93,50.832Zm31.607,26.143a3.512,3.512,0,0,1-7.023,0V70.231a18.643,18.643,0,0,0,7.023-2.757Zm14.221-15.686a4.3,4.3,0,0,1-4.295,4.295h-.008a4.3,4.3,0,0,1-4.295-4.295V46.965a4.3,4.3,0,0,1,8.6,0Z" transform="translate(-99.501)" fill="#fff"/></g></g></svg>