<svg xmlns="http://www.w3.org/2000/svg" width="169.24" height="230.545" viewBox="0 0 169.24 230.545"><g transform="translate(-2.833 -2.836)"><g transform="translate(2.833 2.836)"><path d="M16.61,33.5A13.746,13.746,0,0,0,2.833,47.274V187.352a13.483,13.483,0,0,0,.187,2.184c.013.094.018.184.035.277a2.9,2.9,0,0,0,.071.386c1.819,12.262,13.047,19.8,38.9,38.749,46.723,34.252,43.506,34.238,90.52.387,29.873-21.51,40.34-28.132,39.482-44.246V47.274A13.749,13.749,0,0,0,158.244,33.5Z" transform="translate(-2.833 -24.136)" fill="rgba(0,0,0,0.07)"/><path d="M16.61,2.836A13.746,13.746,0,0,0,2.833,16.613V156.691a13.477,13.477,0,0,0,.187,2.184c.013.094.018.184.035.277a2.908,2.908,0,0,0,.071.387c1.819,12.262,13.047,19.8,38.9,38.749,46.723,34.252,43.506,34.238,90.52.387,29.873-21.51,40.34-28.132,39.482-44.247V16.613A13.749,13.749,0,0,0,158.244,2.836Z" transform="translate(-2.833 -2.836)" fill="#fff"/><g transform="translate(14.879 14.27)"><g transform="translate(103.724 5.712)"><path d="M398.107,76.018c.208-2.319,2-3.79,4.739-3.79s4.534,1.471,4.742,3.79Zm9.2,5.726a4.624,4.624,0,0,1-4.6,2.736,4.441,4.441,0,0,1-4.781-4.528H414.09v-.816c0-6.945-4.077-10.849-11.382-10.849-7.094,0-11.383,3.939-11.383,10.118,0,6.216,4.356,10.149,11.383,10.149,4.217,0,7.486-1.445,9.5-3.986Z" transform="translate(-391.324 -68.288)" fill="#7a7a7a"/></g><g transform="translate(32.016 5.721)"><path d="M163.216,76.051c.214-2.319,2.007-3.79,4.748-3.79s4.529,1.471,4.739,3.79Zm9.206,5.726a4.625,4.625,0,0,1-4.6,2.741,4.445,4.445,0,0,1-4.778-4.534H179.2v-.811c0-6.949-4.076-10.853-11.381-10.853-7.1,0-11.379,3.941-11.379,10.119,0,6.216,4.354,10.15,11.379,10.15,4.215,0,7.488-1.44,9.506-3.984Z" transform="translate(-156.439 -68.32)" fill="#7a7a7a"/></g><g transform="translate(24.739 1.512)"><rect width="5.828" height="23.845" fill="#7a7a7a"/></g><g transform="translate(56.225 5.933)"><path d="M235.739,70.927H241.6v1.42a9.844,9.844,0,0,1,7.377-3.334c3.237,0,5.688,1.119,6.953,3.025,1.056,1.574,1.126,3.474,1.126,5.971V88.437h-5.87V79.274c0-3.8-.765-5.557-4.1-5.557-3.373,0-5.483,2.009-5.483,5.382v9.338h-5.861Z" transform="translate(-235.739 -69.013)" fill="#7a7a7a"/></g><g transform="translate(78.99)"><path d="M327.735,65.7c0,3.264-2.181,5.4-5.555,5.4s-5.557-2.068-5.557-5.367c0-3.348,2.152-5.414,5.557-5.414C325.554,60.328,327.735,62.431,327.735,65.7Zm0-7.484c-1.482-1.589-3.626-2.46-6.606-2.46-6.43,0-10.821,3.965-10.821,9.908,0,5.826,4.36,9.9,10.715,9.9,2.914,0,5.053-.737,6.712-2.389v1.755H333.6V49.579l-5.865,1.512Z" transform="translate(-310.308 -49.579)" fill="#7a7a7a"/></g><path d="M62.987,60.328c3.408,0,5.551,2.066,5.551,5.414,0,3.3-2.177,5.367-5.551,5.367s-5.55-2.141-5.55-5.4S59.615,60.328,62.987,60.328Zm-5.55-9.237L51.57,49.579V74.936h5.867V73.181c1.651,1.652,3.794,2.389,6.71,2.389,6.358,0,10.712-4.076,10.712-9.9,0-5.943-4.392-9.908-10.818-9.908-2.987,0-5.13.872-6.6,2.46Z" transform="translate(-51.57 -49.579)" fill="#7a7a7a"/><g transform="translate(127.936 5.762)"><path d="M470.632,88.047V70.538H476.5v1.082c1.756-2.115,3.615-3.167,5.729-3.167.419,0,.947.068,1.648.137v4.992a14.814,14.814,0,0,0-1.864-.074c-3.409,0-5.514,2.249-5.514,6.073v8.468Z" transform="translate(-470.632 -68.452)" fill="#7a7a7a"/></g></g><g transform="translate(15.39 60.51)"><g transform="translate(51.424 28.687)"><path d="M221.734,327.354a32.763,32.763,0,0,1,11.892-23.2,40.338,40.338,0,0,1,51.165,0,32.8,32.8,0,0,1,11.891,23.186,32.206,32.206,0,0,1-10.012,24.9,40.209,40.209,0,0,1-54.934,0,32.157,32.157,0,0,1-10-24.89Z" transform="translate(-221.687 -295.008)" fill="#fff"/></g><g transform="translate(70.625 46.106)"><path d="M284.6,367.859a16,16,0,0,1,5.806-11.326,19.7,19.7,0,0,1,24.982,0,16.013,16.013,0,0,1,5.806,11.321,15.726,15.726,0,0,1-4.888,12.158,19.633,19.633,0,0,1-26.823,0,15.7,15.7,0,0,1-4.883-12.153Z" transform="translate(-284.581 -352.066)" fill="#265787"/></g><path d="M94.753,272.075a33.454,33.454,0,0,0,1.442,7.891,41.621,41.621,0,0,0,8.993,15.571,46.461,46.461,0,0,0,15.738,11.3,51.461,51.461,0,0,0,41.318-.072,46.785,46.785,0,0,0,15.726-11.347,41.973,41.973,0,0,0,8.99-15.6,39.194,39.194,0,0,0,1.41-17.357,40.21,40.21,0,0,0-5.735-15.693,43.791,43.791,0,0,0-10.46-11.534l.009-.007-42.336-32.507c-.038-.029-.069-.06-.11-.086-2.778-2.132-7.448-2.125-10.5.012-3.089,2.161-3.442,5.735-.693,7.989l-.012.012,17.658,14.359-53.82.057H82.3c-4.448,0-8.725,2.923-9.571,6.612-.87,3.758,2.151,6.875,6.777,6.891l-.007.017,27.279-.053L58.1,275.9c-.062.045-.129.093-.187.139-4.592,3.516-6.077,9.363-3.184,13.063,2.935,3.762,9.177,3.77,13.817.022l26.567-21.743a41.544,41.544,0,0,0-.356,4.7ZM163.02,281.9a30.7,30.7,0,0,1-42.871.069,25.494,25.494,0,0,1-5.852-9.16,23.791,23.791,0,0,1-1.343-10.236,24.168,24.168,0,0,1,2.933-9.636A26.556,26.556,0,0,1,122.4,245.2a30.94,30.94,0,0,1,38.368-.055,26.457,26.457,0,0,1,6.5,7.719,24.178,24.178,0,0,1,2.945,9.631,23.844,23.844,0,0,1-1.348,10.228,25.615,25.615,0,0,1-5.847,9.182Z" transform="translate(-53.243 -201.041)" fill="#e87d0d"/></g></g></g></svg>