<svg xmlns="http://www.w3.org/2000/svg" xmlns:xlink="http://www.w3.org/1999/xlink" width="64.339" height="78.563" viewBox="0 0 64.339 78.563"><defs><filter id="a" x="0" y="0" width="64.339" height="78.563" filterUnits="userSpaceOnUse"><feOffset dy="3" input="SourceAlpha"/><feGaussianBlur stdDeviation="3" result="b"/><feFlood flood-opacity="0.161"/><feComposite operator="in" in2="b"/><feComposite in="SourceGraphic"/></filter></defs><g transform="translate(6.165 3.165)"><g transform="translate(2.835 2.835)"><g transform="matrix(1, 0, 0, 1, -9, -6)" filter="url(#a)"><path d="M6.607,2.835A3.764,3.764,0,0,0,2.835,6.607V44.962a3.68,3.68,0,0,0,.051.6c0,.026,0,.051.01.076a.807.807,0,0,0,.019.106c.5,3.357,3.572,5.421,10.65,10.61,12.793,9.378,11.912,9.375,24.785.106,8.18-5.889,11.046-7.7,10.811-12.115V6.607a3.764,3.764,0,0,0-3.773-3.772Z" transform="translate(6.16 3.17)" fill="#e87d0d"/></g><g transform="translate(4.074 3.907)"><g transform="translate(28.401 1.564)"><path d="M241.936,44.921a1.331,1.331,0,0,1,2.6,0Zm2.519,1.568a1.266,1.266,0,0,1-1.259.749A1.216,1.216,0,0,1,241.887,46h4.426v-.223c0-1.9-1.116-2.97-3.117-2.97-1.942,0-3.117,1.079-3.117,2.771s1.193,2.779,3.117,2.779a3.182,3.182,0,0,0,2.6-1.091Z" transform="translate(-240.079 -42.805)" fill="rgba(255,255,255,0.81)"/></g><g transform="translate(8.766 1.567)"><path d="M98.494,44.942a1.332,1.332,0,0,1,2.6,0Zm2.521,1.568a1.266,1.266,0,0,1-1.261.751,1.217,1.217,0,0,1-1.308-1.241h4.424V45.8c0-1.9-1.116-2.972-3.116-2.972-1.943,0-3.116,1.079-3.116,2.771s1.192,2.779,3.116,2.779a3.183,3.183,0,0,0,2.6-1.091Z" transform="translate(-96.639 -42.825)" fill="rgba(255,255,255,0.81)"/></g><g transform="translate(6.774 0.414)"><rect width="1.596" height="6.529" fill="rgba(255,255,255,0.81)"/></g><g transform="translate(15.395 1.625)"><path d="M145.066,43.772h1.6v.389a2.7,2.7,0,0,1,2.02-.913,2.181,2.181,0,0,1,1.9.828,2.828,2.828,0,0,1,.308,1.635v2.855H149.3V46.058c0-1.041-.209-1.522-1.123-1.522a1.374,1.374,0,0,0-1.5,1.474v2.557h-1.6Z" transform="translate(-145.066 -43.248)" fill="rgba(255,255,255,0.81)"/></g><g transform="translate(21.628)"><path d="M195.376,35.8a1.522,1.522,0,1,1-1.521-1.472A1.409,1.409,0,0,1,195.376,35.8Zm0-2.049a2.341,2.341,0,0,0-1.809-.674,2.721,2.721,0,1,0-.029,5.424,2.435,2.435,0,0,0,1.838-.654v.481h1.606V31.38l-1.606.414Z" transform="translate(-190.604 -31.38)" fill="rgba(255,255,255,0.81)"/></g><g transform="translate(0)"><path d="M35.723,34.323a1.477,1.477,0,1,1,0,2.952,1.477,1.477,0,1,1,0-2.952ZM34.2,31.794,32.6,31.38v6.943H34.2v-.481a2.429,2.429,0,0,0,1.837.654,2.721,2.721,0,1,0-.029-5.424,2.334,2.334,0,0,0-1.808.674Z" transform="translate(-32.597 -31.38)" fill="rgba(255,255,255,0.81)"/></g><g transform="translate(35.03 1.578)"><path d="M288.511,48.27V43.476h1.606v.3a2.025,2.025,0,0,1,1.569-.867c.115,0,.259.019.451.038V44.31a4.037,4.037,0,0,0-.51-.02,1.465,1.465,0,0,0-1.51,1.663V48.27Z" transform="translate(-288.511 -42.905)" fill="rgba(255,255,255,0.81)"/></g></g><g transform="translate(4.214 16.568)"><g transform="translate(19.338 12.624)"><path d="M174.9,220.427a4.38,4.38,0,0,1,1.59-3.1,5.393,5.393,0,0,1,6.84,0,4.384,4.384,0,0,1,1.59,3.1,4.305,4.305,0,0,1-1.338,3.329,5.376,5.376,0,0,1-7.344,0,4.3,4.3,0,0,1-1.337-3.327Z" transform="translate(-174.893 -216.103)" fill="#fff"/></g><path d="M44.985,143.325a9.165,9.165,0,0,0,.395,2.161,11.4,11.4,0,0,0,2.462,4.263,12.721,12.721,0,0,0,4.309,3.094,14.09,14.09,0,0,0,11.313-.02,12.812,12.812,0,0,0,4.306-3.107,11.5,11.5,0,0,0,2.462-4.271,10.729,10.729,0,0,0,.386-4.752,11.007,11.007,0,0,0-1.57-4.3,11.983,11.983,0,0,0-2.864-3.158l0,0-11.592-8.9c-.01-.008-.019-.016-.03-.024a2.577,2.577,0,0,0-2.876,0,1.306,1.306,0,0,0-.19,2.187l0,0,4.835,3.932-14.736.016h-.02a2.687,2.687,0,0,0-2.621,1.81c-.238,1.029.589,1.882,1.856,1.887l0,0,7.469-.014L34.948,144.372l-.051.038a2.619,2.619,0,0,0-.872,3.577c.8,1.03,2.513,1.032,3.783.006l7.274-5.953a11.381,11.381,0,0,0-.1,1.286Zm18.692,2.691a8.407,8.407,0,0,1-11.739.019,6.982,6.982,0,0,1-1.6-2.508,6.514,6.514,0,0,1-.368-2.8,6.619,6.619,0,0,1,.8-2.638,7.27,7.27,0,0,1,1.783-2.12,8.472,8.472,0,0,1,10.506-.015,7.244,7.244,0,0,1,1.781,2.113,6.618,6.618,0,0,1,.806,2.637,6.529,6.529,0,0,1-.369,2.8,7.014,7.014,0,0,1-1.6,2.514Z" transform="translate(-33.619 -123.875)" fill="#fff"/></g></g></g></svg>