<svg xmlns="http://www.w3.org/2000/svg" width="73.847" height="77.729" viewBox="0 0 73.847 77.729"><g transform="translate(0 0)"><path d="M281.3,126.25a1.3,1.3,0,0,0,1.3-1.3v-6.477a3.886,3.886,0,0,1,3.886-3.886h57a3.886,3.886,0,0,1,3.886,3.886v14.25a1.3,1.3,0,0,0,2.591,0v-14.25A6.485,6.485,0,0,0,343.479,112h-57A6.485,6.485,0,0,0,280,118.477v6.477A1.3,1.3,0,0,0,281.3,126.25Z" transform="translate(-280 -112)" fill="#fff"/><path d="M287.773,248.387h14.745l-2.591,5.182h-4.381a3.886,3.886,0,0,0-3.886,3.887v2.591a1.3,1.3,0,0,0,1.3,1.3h10.364a1.3,1.3,0,0,0,0-2.591H294.25v-1.3a1.3,1.3,0,0,1,1.3-1.3H334.41a1.3,1.3,0,0,1,1.3,1.3v1.3H308.5a1.3,1.3,0,0,0,0,2.591H337a1.3,1.3,0,0,0,1.3-1.3v-2.591a3.886,3.886,0,0,0-3.886-3.887h-4.381l-2.591-5.182h16.041a6.485,6.485,0,0,0,6.477-6.477V225.068a1.3,1.3,0,1,0-2.591,0V241.91a3.886,3.886,0,0,1-3.886,3.886H287.773a5.182,5.182,0,0,1-5.182-5.182V217.3a1.3,1.3,0,1,0-2.591,0v23.319A7.781,7.781,0,0,0,287.773,248.387Zm36.768,0,2.591,5.182H302.824l2.591-5.182Z" transform="translate(-280 -199.159)" fill="#fff"/><path d="M336.663,172.912a1.3,1.3,0,0,0,1.638.82h0l3.886-1.3a1.3,1.3,0,0,0,.82-1.638h0l-1.3-3.886a1.3,1.3,0,1,0-2.461.819l.286.86-2.941-1.963v-9.671a1.3,1.3,0,0,0-.716-1.159l-7.057-3.528v-3.845l.38.38a1.3,1.3,0,0,0,1.832-1.832l-2.591-2.591a1.3,1.3,0,0,0-1.832,0l-2.591,2.591a1.3,1.3,0,0,0,1.832,1.832l.38-.38v3.845l-7.056,3.528a1.3,1.3,0,0,0-.716,1.159v9.671l-2.943,1.963.286-.86a1.3,1.3,0,1,0-2.461-.819h0l-1.3,3.886a1.3,1.3,0,0,0,.82,1.639h0l3.886,1.3a1.3,1.3,0,0,0,.819-2.461l-.942-.314,3.217-2.144,7.1,3.56a1.3,1.3,0,0,0,1.158,0l7.1-3.551,3.217,2.144-.942.314A1.3,1.3,0,0,0,336.663,172.912Zm-9.134-13.517-4.876-2.438,4.876-2.438,4.876,2.438Zm-6.477-.342,5.182,2.591v7.467l-5.182-2.591Zm7.773,10.058v-7.467l5.182-2.591v7.467Z" transform="translate(-306.801 -138.82)" fill="#fff"/><path d="M522.381,203.722a1.329,1.329,0,0,0-1.352,1.236,1.3,1.3,0,0,0,1.236,1.353h0c.488.022.977.034,1.463.034a30.517,30.517,0,0,0,10.753-1.933,1.3,1.3,0,0,0,.839-1.214v-3.886a6.485,6.485,0,0,0-6.477-6.477v-.714a7.683,7.683,0,0,0,2.591-5.764v-2.312a7.984,7.984,0,0,0-7.014-8.015,7.773,7.773,0,0,0-8.495,6.977q-.037.379-.037.76v2.591a7.683,7.683,0,0,0,2.591,5.764v.714A6.485,6.485,0,0,0,512,199.311V203.2a1.3,1.3,0,0,0,.839,1.213,30.854,30.854,0,0,0,4.06,1.181,1.3,1.3,0,1,0,.57-2.529h0c-1.064-.238-2.012-.5-2.879-.777v-2.974a3.886,3.886,0,0,1,3.886-3.886h1.3a1.3,1.3,0,0,0,1.3-1.3V191.51a1.3,1.3,0,0,0-.518-1.036,5.135,5.135,0,0,1-2.073-4.117v-2.591a5.188,5.188,0,0,1,1.7-3.835,5.129,5.129,0,0,1,4-1.323,5.375,5.375,0,0,1,4.664,5.441v2.307a5.135,5.135,0,0,1-2.073,4.12,1.3,1.3,0,0,0-.518,1.036v2.617a1.3,1.3,0,0,0,1.3,1.3h1.3a3.886,3.886,0,0,1,3.886,3.886v2.98A28.123,28.123,0,0,1,522.381,203.722Z" transform="translate(-474.431 -165.629)" fill="#fff"/><path d="M492.966,191.26a1.3,1.3,0,0,0,1.619-2.024h0a6.9,6.9,0,0,1-2.105-8.044,1.3,1.3,0,0,0,2.591-.013h0v-3.886a1.3,1.3,0,0,0-1.7-1.229l-3.886,1.3a1.3,1.3,0,0,0,.744,2.461,9.57,9.57,0,0,0,2.743,11.433Z" transform="translate(-454.911 -165.635)" fill="#fff"/><path d="M646.408,188.543a1.285,1.285,0,0,0-1.562-.829,9.575,9.575,0,0,0-2.743-11.433,1.3,1.3,0,0,0-1.619,2.024,6.9,6.9,0,0,1,2.105,8.044,1.3,1.3,0,0,0-2.591.013v3.886a1.3,1.3,0,0,0,1.7,1.229l3.886-1.3A1.3,1.3,0,0,0,646.408,188.543Z" transform="translate(-581.701 -165.634)" fill="#fff"/><path d="M376.841,337.3a1.3,1.3,0,0,0-1.3-1.3H361.3a1.3,1.3,0,0,0,0,2.591h14.25A1.3,1.3,0,0,0,376.841,337.3Z" transform="translate(-347.046 -299.727)" fill="#fff"/><path d="M361.3,368a1.3,1.3,0,0,0,0,2.591h9.068a1.3,1.3,0,0,0,0-2.591Z" transform="translate(-347.046 -326.545)" fill="#fff"/><path d="M588.371,419.993a3.886,3.886,0,0,0-7.125-.937L573.5,432.472H561.3a1.3,1.3,0,0,0-1.3,1.3v10.364a1.3,1.3,0,0,0,1.3,1.3H585.91a1.3,1.3,0,0,0,1.3-1.3V433.768a1.3,1.3,0,0,0-1.3-1.3h-3.432l5.5-9.53A3.868,3.868,0,0,0,588.371,419.993Zm-25.78,22.843v-7.773h3.886v7.773Zm22.023-7.773v7.773H569.068v-7.773H572.7l.259,3.969a1.3,1.3,0,0,0,1.3,1.213,1.279,1.279,0,0,0,.574-.13l4.187-2.073a1.3,1.3,0,0,0,.548-.518l1.428-2.461Zm1.121-13.416-8.224,14.25-2.094,1.036-.15-2.332,8.225-14.25a1.3,1.3,0,1,1,2.281,1.228c-.012.023-.025.046-.039.068Z" transform="translate(-514.658 -367.698)" fill="#fff"/><path d="M317.569,512H281.3a1.3,1.3,0,0,0-1.3,1.3v10.364a1.3,1.3,0,0,0,1.3,1.3h36.274a1.3,1.3,0,0,0,1.3-1.3V513.3A1.3,1.3,0,0,0,317.569,512Zm-1.3,5.182h-2.591v-2.591h2.591Zm-5.182,0H308.5v-2.591h2.591Zm-5.182,0h-2.591v-2.591h2.591Zm-5.182,0h-2.591v-2.591h2.591Zm-5.182,0h-2.591v-2.591h2.591Zm-5.182,0h-2.591v-2.591h2.591Zm-7.773-2.591h2.591v2.591h-2.591Zm0,5.182h2.591v2.591h-2.591Zm5.182,0h2.591v2.591h-2.591Zm5.182,0H305.91v2.591H292.955Zm15.546,0h2.591v2.591H308.5Zm7.773,2.591h-2.591v-2.591h2.591Z" transform="translate(-280 -447.226)" fill="#fff"/></g></svg>