<svg xmlns="http://www.w3.org/2000/svg" width="80.32" height="80.32" viewBox="0 0 80.32 80.32"><g transform="translate(0)"><path d="M81.843,8H14.477A6.485,6.485,0,0,0,8,14.477V66.3a6.485,6.485,0,0,0,6.477,6.477H35.7l-3.886,7.773H28.728a1.3,1.3,0,0,0-1.3,1.3v5.182a1.3,1.3,0,0,0,1.3,1.3H67.592a1.3,1.3,0,0,0,1.3-1.3V81.843a1.3,1.3,0,0,0-1.3-1.3H64.506L60.62,72.775H81.843A6.485,6.485,0,0,0,88.32,66.3V14.477A6.485,6.485,0,0,0,81.843,8ZM66.3,85.729H30.023V83.138H66.3ZM61.61,80.547H34.71L38.6,72.775H57.723ZM85.729,66.3a3.886,3.886,0,0,1-3.886,3.886H14.477A3.886,3.886,0,0,1,10.591,66.3V14.477a3.886,3.886,0,0,1,3.886-3.886H81.843a3.886,3.886,0,0,1,3.886,3.886Z" transform="translate(-8 -8)" fill="#fff"/><path d="M108.661,40H41.3A1.3,1.3,0,0,0,40,41.3V87.933a1.3,1.3,0,0,0,1.3,1.3h67.365a1.3,1.3,0,0,0,1.3-1.3V41.3A1.3,1.3,0,0,0,108.661,40Zm-1.3,46.638H42.591V42.591h64.774Z" transform="translate(-34.818 -34.818)" fill="#fff"/><path d="M440,360h2.591v2.591H440Z" transform="translate(-370.043 -302.998)" fill="#fff"/><path d="M408,360h2.591v2.591H408Z" transform="translate(-343.225 -302.998)" fill="#fff"/><path d="M201.91,143.773a1.3,1.3,0,0,0-.666-1.132l-11.659-6.477a1.3,1.3,0,0,0-1.259,0l-11.659,6.477a1.3,1.3,0,0,0-.666,1.132v12.955a1.3,1.3,0,0,0,.666,1.132l11.659,6.477a1.3,1.3,0,0,0,1.259,0l11.659-6.477a1.3,1.3,0,0,0,.666-1.132Zm-12.955-5,8.992,5-8.992,5-8.992-5Zm-10.364,7.2,9.068,5.038V161l-9.068-5.039ZM190.25,161v-9.991l9.068-5.037v9.991Z" transform="translate(-148.794 -115.272)" fill="#fff"/><path d="M229.851,76.424V81.07h2.591V76.424l1.675,1.675,1.832-1.832-3.886-3.886a1.3,1.3,0,0,0-1.832,0l-3.886,3.886,1.832,1.832Z" transform="translate(-190.986 -61.638)" fill="#fff"/><path d="M344,192.442h4.644l-1.675,1.675,1.833,1.832,3.886-3.886a1.3,1.3,0,0,0,0-1.832l-3.886-3.886-1.833,1.832,1.675,1.675H344Z" transform="translate(-289.589 -157.464)" fill="#fff"/><path d="M121.07,189.851h-4.644l1.675-1.675-1.833-1.832-3.886,3.886a1.3,1.3,0,0,0,0,1.832l3.886,3.886,1.833-1.832-1.675-1.675h4.644Z" transform="translate(-95.16 -157.464)" fill="#fff"/><path d="M73.3,79.773h1.3v2.591h2.591V79.773h1.3a1.3,1.3,0,0,0,1.3-1.3v-1.3h14.25V74.591H79.773V73.3a1.3,1.3,0,0,0-1.3-1.3H73.3A1.3,1.3,0,0,0,72,73.3v5.182A1.3,1.3,0,0,0,73.3,79.773Zm1.3-5.182h2.591v2.591H74.591Z" transform="translate(-61.636 -61.636)" fill="#fff"/><path d="M73.3,258.364h5.182a1.3,1.3,0,0,0,1.3-1.3v-1.3h9.068v-2.591H79.773v-1.3a1.3,1.3,0,0,0-1.3-1.3h-1.3V248H74.591v2.591H73.3a1.3,1.3,0,0,0-1.3,1.3v5.182A1.3,1.3,0,0,0,73.3,258.364Zm1.3-5.182h2.591v2.591H74.591Z" transform="translate(-61.636 -209.135)" fill="#fff"/><path d="M318.25,78.477a1.3,1.3,0,0,0,1.3,1.3h1.3v2.591h2.591V79.773h1.3a1.3,1.3,0,0,0,1.3-1.3V73.3a1.3,1.3,0,0,0-1.3-1.3h-5.182a1.3,1.3,0,0,0-1.3,1.3v1.3H304v2.591h14.25Zm2.591-3.886h2.591v2.591h-2.591Z" transform="translate(-256.067 -61.636)" fill="#fff"/><path d="M351.546,250.591h-1.3V248h-2.591v2.591h-1.3a1.3,1.3,0,0,0-1.3,1.3v1.3H336v2.591h9.068v1.3a1.3,1.3,0,0,0,1.3,1.3h5.182a1.3,1.3,0,0,0,1.3-1.3v-5.182A1.3,1.3,0,0,0,351.546,250.591Zm-1.3,5.182h-2.591v-2.591h2.591Z" transform="translate(-282.885 -209.135)" fill="#fff"/><path d="M408,152h2.591v2.591H408Z" transform="translate(-343.225 -128.681)" fill="#fff"/><path d="M408,184h2.591v2.591H408Z" transform="translate(-343.225 -155.499)" fill="#fff"/><path d="M408,216h2.591v2.591H408Z" transform="translate(-343.225 -182.317)" fill="#fff"/><path d="M88,152h2.591v2.591H88Z" transform="translate(-75.045 -128.681)" fill="#fff"/><path d="M88,184h2.591v2.591H88Z" transform="translate(-75.045 -155.499)" fill="#fff"/><path d="M88,216h2.591v2.591H88Z" transform="translate(-75.045 -182.317)" fill="#fff"/></g></svg>